<svg data-v-423bf9ae="" xmlns="http://www.w3.org/2000/svg" viewBox="0 0 132.59541269935593 60" class="font"><!----><!----><!----><g data-v-423bf9ae="" id="04f29742-f787-4a24-9de5-81a17b9dd479" fill="white" transform="matrix(5.725190568780254,0,0,5.725190568780254,-2.4045799397158305,-14.770990753818523)"><path d="M2.24 4.59L2.24 4.59L2.24 4.59Q1.79 4.59 1.48 4.31L1.48 4.31L1.48 4.31Q1.18 4.03 1.18 3.58L1.18 3.58L1.18 3.58Q1.18 3.14 1.48 2.86L1.48 2.86L1.48 2.86Q1.79 2.58 2.24 2.58L2.24 2.58L2.24 2.58Q2.69 2.58 2.99 2.86L2.99 2.86L2.99 2.86Q3.29 3.14 3.29 3.58L3.29 3.58L3.29 3.58Q3.29 4.03 2.99 4.31L2.99 4.31L2.99 4.31Q2.69 4.59 2.24 4.59ZM3.05 12.11L3.93 12.29L3.93 12.85L0.52 12.85L0.52 12.29L1.47 12.11L1.47 12.11Q1.48 11.58 1.48 10.98L1.48 10.98L1.48 10.98Q1.48 10.37 1.48 9.91L1.48 9.91L1.48 9.21L1.48 9.21Q1.48 8.64 1.47 8.25L1.47 8.25L1.47 8.25Q1.46 7.87 1.44 7.45L1.44 7.45L0.42 7.32L0.42 6.80L2.87 5.94L3.08 6.08L3.04 8.02L3.04 9.91L3.04 9.91Q3.04 10.37 3.04 10.98L3.04 10.98L3.04 10.98Q3.04 11.59 3.05 12.11L3.05 12.11ZM7.22 7.49L7.22 11.54L7.22 11.54Q7.97 12.12 8.62 12.12L8.62 12.12L8.62 12.12Q8.97 12.12 9.28 11.96L9.28 11.96L9.28 11.96Q9.59 11.80 9.82 11.48L9.82 11.48L9.82 11.48Q10.05 11.16 10.19 10.68L10.19 10.68L10.19 10.68Q10.32 10.19 10.32 9.53L10.32 9.53L10.32 9.53Q10.32 8.20 9.88 7.54L9.88 7.54L9.88 7.54Q9.45 6.87 8.71 6.87L8.71 6.87L8.71 6.87Q8.05 6.87 7.22 7.49L7.22 7.49ZM7.18 4.80L7.18 6.87L7.18 6.87Q7.63 6.41 8.13 6.17L8.13 6.17L8.13 6.17Q8.64 5.94 9.25 5.94L9.25 5.94L9.25 5.94Q9.83 5.94 10.32 6.17L10.32 6.17L10.32 6.17Q10.82 6.40 11.19 6.85L11.19 6.85L11.19 6.85Q11.55 7.29 11.76 7.95L11.76 7.95L11.76 7.95Q11.97 8.60 11.97 9.45L11.97 9.45L11.97 9.45Q11.97 10.28 11.75 10.95L11.75 10.95L11.75 10.95Q11.52 11.62 11.13 12.09L11.13 12.09L11.13 12.09Q10.74 12.56 10.20 12.81L10.20 12.81L10.20 12.81Q9.66 13.06 9.04 13.06L9.04 13.06L9.04 13.06Q8.50 13.06 8.04 12.87L8.04 12.87L8.04 12.87Q7.57 12.67 7.17 12.22L7.17 12.22L7.08 12.22L7 13.03L4.70 12.85L4.70 12.29L5.66 12.11L5.66 12.11Q5.67 11.58 5.67 10.97L5.67 10.97L5.67 10.97Q5.67 10.36 5.67 9.91L5.67 9.91L5.67 4.00L4.56 3.86L4.56 3.33L7.04 2.70L7.24 2.81L7.18 4.80ZM14.83 8.86L16.93 8.86L16.93 8.86Q17.43 8.86 17.61 8.65L17.61 8.65L17.61 8.65Q17.78 8.44 17.78 8.06L17.78 8.06L17.78 8.06Q17.78 7.43 17.42 7.01L17.42 7.01L17.42 7.01Q17.07 6.59 16.53 6.59L16.53 6.59L16.53 6.59Q16.27 6.59 15.99 6.71L15.99 6.71L15.99 6.71Q15.71 6.83 15.46 7.10L15.46 7.10L15.46 7.10Q15.22 7.36 15.05 7.80L15.05 7.80L15.05 7.80Q14.88 8.23 14.83 8.86L14.83 8.86ZM19.18 9.51L14.80 9.51L14.80 9.51Q14.83 10.78 15.41 11.42L15.41 11.42L15.41 11.42Q16.00 12.07 16.94 12.07L16.94 12.07L16.94 12.07Q17.58 12.07 18.01 11.79L18.01 11.79L18.01 11.79Q18.44 11.52 18.79 11.05L18.79 11.05L19.19 11.30L19.19 11.30Q18.87 12.14 18.14 12.60L18.14 12.60L18.14 12.60Q17.42 13.06 16.39 13.06L16.39 13.06L16.39 13.06Q15.65 13.06 15.06 12.82L15.06 12.82L15.06 12.82Q14.46 12.59 14.04 12.13L14.04 12.13L14.04 12.13Q13.61 11.68 13.38 11.03L13.38 11.03L13.38 11.03Q13.15 10.37 13.15 9.55L13.15 9.55L13.15 9.55Q13.15 8.75 13.40 8.09L13.40 8.09L13.40 8.09Q13.66 7.42 14.12 6.94L14.12 6.94L14.12 6.94Q14.57 6.47 15.19 6.20L15.19 6.20L15.19 6.20Q15.81 5.94 16.51 5.94L16.51 5.94L16.51 5.94Q17.12 5.94 17.63 6.14L17.63 6.14L17.63 6.14Q18.14 6.34 18.51 6.71L18.51 6.71L18.51 6.71Q18.87 7.07 19.07 7.60L19.07 7.60L19.07 7.60Q19.28 8.12 19.28 8.76L19.28 8.76L19.28 8.76Q19.28 8.97 19.25 9.16L19.25 9.16L19.25 9.16Q19.22 9.35 19.18 9.51L19.18 9.51ZM22.64 12.11L23.58 12.29L23.58 12.85L20.06 12.85L20.06 12.29L21.04 12.11L21.04 12.11Q21.06 11.55 21.06 11.00L21.06 11.00L21.06 11.00Q21.07 10.46 21.07 9.91L21.07 9.91L21.07 4.00L19.96 3.86L19.96 3.33L22.47 2.70L22.67 2.81L22.61 4.80L22.61 9.91L22.61 9.91Q22.61 10.46 22.62 11.01L22.62 11.01L22.62 11.01Q22.62 11.56 22.64 12.11L22.64 12.11Z"></path></g><!----><!----></svg>